Coordinates
version=1
nRows=4
nColumns=63
inDegrees=yes

Units are S.I. units (second, meters, Newtons, ...)
If the header above contains a line with 'inDegrees', this indicates whether rotational values are in degrees (yes) or radians (no).

endheader
time	pelvis_tilt	pelvis_list	pelvis_rotation	pelvis_tx	pelvis_ty	pelvis_tz	hip_flexion_r	hip_adduction_r	hip_rotation_r	knee_angle_r	knee_angle_r_beta	ankle_angle_r	subtalar_angle_r	mtp_angle_r	hip_flexion_l	hip_adduction_l	hip_rotation_l	knee_angle_l	knee_angle_l_beta	ankle_angle_l	subtalar_angle_l	mtp_angle_l	L5_S1_Flex_Ext	L5_S1_Lat_Bending	L5_S1_axial_rotation	L4_L5_Flex_Ext	L4_L5_Lat_Bending	L4_L5_axial_rotation	L3_L4_Flex_Ext	L3_L4_Lat_Bending	L3_L4_axial_rotation	L2_L3_Flex_Ext	L2_L3_Lat_Bending	L2_L3_axial_rotation	L1_L2_Flex_Ext	L1_L2_Lat_Bending	L1_L2_axial_rotation	L1_T12_Flex_Ext	L1_T12_Lat_Bending	L1_T12_axial_rotation	Abs_r3	Abs_r2	Abs_r1	Abs_t1	Abs_t2	neck_flexion	neck_bending	neck_rotation	arm_flex_r	arm_add_r	arm_rot_r	elbow_flex_r	pro_sup_r	wrist_flex_r	wrist_dev_r	arm_flex_l	arm_add_l	arm_rot_l	elbow_flex_l	pro_sup_l	wrist_flex_l	wrist_dev_l
      1.24000000	      7.64458152	     -7.00289977	     84.55848605	      0.49569843	      0.58929978	      0.66307159	      1.62458357	      5.19122796	     18.49216627	      0.40090742	      0.00699715	     25.88881388	    -11.48519005	      0.00000000	      8.80115360	     -5.27250209	      2.39976096	     17.42514864	      0.30412622	     34.08111274	    -14.60605970	      0.00000000	      0.30007100	      0.45533017	     -0.07655158	      0.55726185	      0.60558912	     -0.08133605	      0.49298664	      1.10708977	     -0.08133605	      0.34295114	      1.10708977	     -0.06698263	      0.27864593	      0.92850928	     -0.06219816	      0.17146057	      0.70530643	     -0.05741368	      2.14337712	      5.15078593	     -0.42575691	      0.00000000	      0.00000000	     22.85640576	     -1.73909380	     -2.63895527	     18.11080432	      1.40685151	     60.26150448	     34.88103565	      1.96932758	    -14.82797813	      4.98048501	     17.66214327	      0.91099841	     59.02068179	     31.43083645	     77.42228265	    -26.58210766	      3.50075956
      1.26000000	      7.62109046	     -7.07261414	     84.62145982	      0.49538992	      0.58918141	      0.66289339	      1.69552612	      5.15450032	     18.45202139	      0.43028626	      0.00750991	     25.88538245	    -11.51233620	      0.00000000	      8.97330588	     -5.20347617	      2.74310380	     17.53010782	      0.30595810	     34.41996249	    -14.78272210	      0.00000000	      0.30691576	      0.46221494	     -0.12289105	      0.56997325	      0.61474587	     -0.13057174	      0.50423190	      1.12382940	     -0.13057174	      0.35077402	      1.12382940	     -0.10752967	      0.28500197	      0.94254870	     -0.09984898	      0.17537166	      0.71597094	     -0.09216829	      2.19226857	      5.22866780	     -0.68348314	      0.00000000	      0.00000000	     23.01391029	     -1.90828315	     -2.81501188	     18.13204655	      1.54863447	     60.58415354	     34.77136912	      1.98363102	    -14.37939668	      4.75888203	     16.85866714	      0.85220289	     57.50190427	     31.96990154	     76.14278679	    -26.24080115	      3.98371391
      1.28000000	      7.66699727	     -7.12272640	     84.84340017	      0.49495133	      0.58900158	      0.66273622	      1.74160962	      5.19012994	     18.24954611	      0.45694706	      0.00797523	     25.88581544	    -11.63810475	      0.00000000	      9.19080677	     -5.19021776	      3.15471522	     17.75592485	      0.30989935	     34.53196563	    -15.04889689	      0.00000000	      0.31442487	      0.47374481	     -0.18301118	      0.58391843	      0.63008060	     -0.19444938	      0.51656862	      1.15186313	     -0.19444938	      0.35935619	      1.15186313	     -0.16013478	      0.29197494	      0.96606042	     -0.14869659	      0.17966237	      0.73383071	     -0.13725839	      2.24590542	      5.35909605	     -1.01785329	      0.00000000	      0.00000000	     23.06871083	     -1.97452299	     -2.90149239	     18.14167367	      1.62619450	     60.71639459	     34.63143014	      1.88319144	    -13.81647731	      4.37566289	     16.16329204	      0.80822195	     56.09711847	     32.47127492	     74.66664807	    -25.19762950	      4.45445343
      1.30000000	      7.65943923	     -7.11999074	     84.84810725	      0.49478323	      0.58891699	      0.66295853	      1.77220723	      5.17209575	     18.19790538	      0.48717758	      0.00850285	     25.93848650	    -11.68304029	      0.00000000	      9.20981799	     -5.16696451	      3.17085476	     17.75673944	      0.30991357	     34.55914630	    -15.07295376	      0.00000000	      0.30730763	      0.47729424	     -0.18283487	      0.57070100	      0.63480134	     -0.19426205	      0.50487571	      1.16049322	     -0.19426205	      0.35122189	      1.16049322	     -0.15998052	      0.28536587	      0.97329842	     -0.14855334	      0.17559558	      0.73932878	     -0.13712616	      2.19506768	      5.39924793	     -1.01687272	      0.00000000	      0.00000000	     23.05581417	     -1.96653351	     -2.90883814	     18.25555636	      1.60998738	     60.67793606	     34.60215151	      1.88088486	    -13.80733660	      4.34031624	     16.03067663	      0.82375549	     56.07184638	     32.49285718	     74.59513216	    -25.12517911	      4.49014340
